<?xml version="1.0" encoding="utf-8"?>
<!-- Generator: Adobe Illustrator 26.0.1, SVG Export Plug-In . SVG Version: 6.00 Build 0)  -->
<svg version="1.1" id="Layer_1" xmlns="http://www.w3.org/2000/svg" xmlns:xlink="http://www.w3.org/1999/xlink" x="0px" y="0px"
	 viewBox="0 0 32 32" style="enable-background:new 0 0 32 32;" xml:space="preserve">
<style type="text/css">
	.st0{fill:#AA4B41;}
</style>
<path class="st0" d="M12.3,3.5l-0.9,0.1c0,0-3.9,0.5-6.9,2.7l0,0l0,0C3.8,7,3.5,7.7,3,8.8s-0.9,2.5-1.4,3.9c-0.8,3-1.5,6.7-1.5,10
	V23l0.1,0.2c1,1.8,2.9,3,4.6,3.8c1.7,0.8,3.3,1.4,4.3,1.4h0.7l0.3-0.6l1.2-2.1c1.4,0.3,2.8,0.5,4.5,0.5s3.3-0.2,4.5-0.5l1.2,2.1
	l0.3,0.6h0.7c1,0,2.5-0.5,4.3-1.2c1.8-0.8,3.6-2,4.6-3.8l0.1-0.2v-0.3c0-3.4-0.7-7-1.5-10c-0.5-1.5-0.9-2.9-1.4-3.9
	c-0.5-1-0.8-1.8-1.5-2.4l0,0l0,0c-2.9-2.4-6.9-2.8-6.9-2.8l-0.9-0.1l-0.3,0.8c0,0-0.3,0.8-0.6,1.8c-1.1-0.2-2.3-0.2-2.8-0.2
	c-0.6,0-1.7,0-2.9,0.2c-0.2-0.9-0.6-1.8-0.6-1.8L12.3,3.5z M10.7,6.1c0,0.1,0.1,0.3,0.1,0.5c-1.5,0.3-3,0.9-4.4,1.8l1.2,1.9
	c2.8-1.9,7.1-2.1,8.3-2.1s5.5,0.2,8.5,2l1.2-1.9c-1.5-0.9-2.9-1.5-4.4-1.8c0-0.1,0.1-0.2,0.1-0.5c1,0.2,3,0.7,4.7,2
	c0,0,0.5,0.7,0.8,1.6c0.5,0.9,0.8,2.3,1.2,3.6c0.8,2.7,1.4,6.1,1.4,9c-0.7,1.1-2,2-3.4,2.7c-1.2,0.6-2.1,0.8-2.7,0.9l-0.7-0.8
	c0.3-0.1,0.7-0.2,0.9-0.3c1.7-0.8,2.7-1.6,2.7-1.6l-1.5-1.7c0,0-0.7,0.6-2.1,1.2c-1.5,0.7-3.7,1.2-6.8,1.2s-5.3-0.7-6.8-1.4
	c-1.5-0.7-2.1-1.2-2.1-1.2L5.6,23c0,0,0.9,0.8,2.7,1.6c0.3,0.1,0.6,0.2,0.9,0.3l-0.6,0.9C8.1,25.8,7.1,25.5,6,25
	c-1.4-0.7-2.7-1.6-3.4-2.7c0-2.9,0.7-6.3,1.4-9c0.5-1.5,0.8-2.7,1.2-3.6C5.5,8.8,6,8.2,6,8.2C7.7,6.8,9.6,6.4,10.7,6.1z M12.1,13.8
	c-0.9,0-1.7,0.5-2.1,1.1c-0.5,0.7-0.7,1.4-0.7,2.3c0,0.9,0.2,1.6,0.7,2.3s1.2,1.1,2.1,1.1c0.9,0,1.7-0.5,2.1-1.1
	c0.5-0.7,0.7-1.4,0.7-2.3c0-0.9-0.2-1.6-0.7-2.3C13.7,14.3,13,13.8,12.1,13.8z M19.9,13.8c-0.9,0-1.7,0.5-2.1,1.1
	c-0.5,0.7-0.7,1.4-0.7,2.3c0,0.9,0.2,1.6,0.7,2.3s1.2,1.1,2.1,1.1c0.9,0,1.7-0.5,2.1-1.1s0.7-1.4,0.7-2.3c0-0.9-0.2-1.6-0.7-2.3
	C21.6,14.3,20.8,13.8,19.9,13.8z M12.1,16.1c0.1,0,0.1,0,0.2,0.2c0.1,0.2,0.3,0.5,0.3,0.9c0,0.5-0.1,0.7-0.2,0.9
	c-0.1,0.2-0.2,0.2-0.3,0.2s-0.1,0-0.2-0.2s-0.3-0.5-0.3-0.9c0-0.5,0.1-0.7,0.2-0.9S11.9,16.1,12.1,16.1z M19.9,16.1
	c0.1,0,0.1,0,0.2,0.2s0.3,0.5,0.3,0.9c0,0.5-0.1,0.7-0.2,0.9s-0.2,0.2-0.3,0.2s-0.1,0-0.2-0.2s-0.3-0.5-0.3-0.9
	c0-0.5,0.1-0.7,0.2-0.9S19.8,16.1,19.9,16.1z"/>
</svg>
