<?xml version="1.0" encoding="utf-8"?>
<!-- Generator: Adobe Illustrator 26.0.1, SVG Export Plug-In . SVG Version: 6.00 Build 0)  -->
<svg version="1.1" id="Capa_1" xmlns="http://www.w3.org/2000/svg" xmlns:xlink="http://www.w3.org/1999/xlink" x="0px" y="0px"
	 viewBox="0 0 474 474" style="enable-background:new 0 0 474 474;" xml:space="preserve">
<style type="text/css">
	.st0{fill:#AA4B41;}
</style>
<g>
	<path class="st0" d="M434.9,61.6H39.1c-19.8,0-36,16.2-36,36v278.7c0,19.8,16.2,36,36,36h395.7c19.8,0,36-16.2,36-36V97.7
		C470.9,77.8,454.7,61.6,434.9,61.6z M429.6,88.3L239.5,250.9L49.3,88.3H429.6z M444.2,376.3c0,5.1-4.2,9.4-9.4,9.4H39.1
		c-5.1,0-9.4-4.2-9.4-9.4V106.6l201,171.9c0.1,0.1,0.3,0.2,0.4,0.3c0.1,0.1,0.3,0.2,0.4,0.3c0.3,0.2,0.5,0.4,0.8,0.5
		c0.1,0.1,0.2,0.1,0.3,0.2c0.4,0.2,0.8,0.4,1.2,0.6c0.1,0,0.2,0.1,0.3,0.1c0.3,0.1,0.6,0.3,1,0.4c0.1,0,0.3,0.1,0.4,0.1
		c0.3,0.1,0.6,0.2,0.9,0.2c0.1,0,0.3,0.1,0.4,0.1c0.3,0.1,0.7,0.1,1,0.2c0.1,0,0.2,0,0.3,0c0.4,0,0.9,0.1,1.3,0.1l0,0l0,0
		c0.4,0,0.9,0,1.3-0.1c0.1,0,0.2,0,0.3,0c0.3,0,0.7-0.1,1-0.2c0.1,0,0.3-0.1,0.4-0.1c0.3-0.1,0.6-0.2,0.9-0.2c0.1,0,0.3-0.1,0.4-0.1
		c0.3-0.1,0.6-0.2,1-0.4c0.1,0,0.2-0.1,0.3-0.1c0.4-0.2,0.8-0.4,1.2-0.6c0.1-0.1,0.2-0.1,0.3-0.2c0.3-0.2,0.5-0.3,0.8-0.5
		c0.1-0.1,0.3-0.2,0.4-0.3c0.1-0.1,0.3-0.2,0.4-0.3l196.3-167.7V376.3z"/>
</g>
</svg>
