<?xml version="1.0" encoding="utf-8"?>
<!-- Generator: Adobe Illustrator 26.0.1, SVG Export Plug-In . SVG Version: 6.00 Build 0)  -->
<svg version="1.1" id="Layer_1" xmlns="http://www.w3.org/2000/svg" xmlns:xlink="http://www.w3.org/1999/xlink" x="0px" y="0px"
	 viewBox="0 0 48 48" style="enable-background:new 0 0 48 48;" xml:space="preserve">
<style type="text/css">
	.st0{fill:#AA4B41;}
</style>
<path class="st0" d="M43,5.2c0,0,4.2-1.7,3.9,2.4c-0.1,1.7-1.2,7.4-2,13.7l-2.8,18.5c0,0-0.2,2.7-2.4,3.2c-2.1,0.5-5.3-1.7-5.9-2.1
	c-0.5-0.4-8.8-5.7-11.8-8.3c-0.8-0.7-1.8-2.1,0.1-3.8l12.4-11.8c1.4-1.4,2.8-4.7-3.1-0.7L15,27.6c0,0-1.9,1.2-5.4,0.1l-7.7-2.4
	c0,0-2.8-1.8,2-3.5C15.7,16.2,30.2,10.6,43,5.2z"/>
</svg>
